<svg aria-hidden="true" style="position: absolute; width: 0; height: 0; overflow: hidden;" version="1.1" xmlns="http://www.w3.org/2000/svg" xmlns:xlink="http://www.w3.org/1999/xlink">
<defs>
<symbol id="icon-envelope-fill" viewBox="0 0 37 37">
<title>envelope-fill</title>
<path d="M32.375 4.625h-27.75c-1.908 0-3.451 1.561-3.451 3.469l-0.017 20.813c0 1.908 1.561 3.469 3.469 3.469h27.75c1.908 0 3.469-1.561 3.469-3.469v-20.813c0-1.908-1.561-3.469-3.469-3.469zM31.681 11.996l-12.262 7.666c-0.555 0.347-1.283 0.347-1.838 0l-12.262-7.666c-0.434-0.277-0.694-0.746-0.694-1.249 0-1.162 1.266-1.856 2.255-1.249l11.62 7.267 11.62-7.267c0.989-0.607 2.255 0.087 2.255 1.249 0 0.503-0.26 0.971-0.694 1.249z"></path>
</symbol>
<symbol id="icon-phone" viewBox="0 0 37 37">
<title>phone</title>
<path d="M31.704 24.11l-4.858-0.555c-1.167-0.134-2.314 0.268-3.137 1.090l-3.519 3.519c-5.413-2.754-9.85-7.172-12.604-12.604l3.538-3.538c0.822-0.822 1.224-1.97 1.090-3.137l-0.555-4.82c-0.23-1.932-1.855-3.385-3.806-3.385h-3.309c-2.161 0-3.959 1.798-3.825 3.959 1.014 16.334 14.077 29.377 30.391 30.391 2.161 0.134 3.959-1.664 3.959-3.825v-3.309c0.019-1.932-1.435-3.558-3.366-3.787z"></path>
</symbol>
<symbol id="icon-send" viewBox="0 0 37 37">
<title>send</title>
<path d="M37 0l-37 20.813 11.824 4.379 18.238-17.098-13.872 18.715 0.011 0.004-0.014-0.004v10.191l6.631-7.736 8.4 3.111 5.781-32.375z"></path>
</symbol>
<symbol id="icon-user" viewBox="0 0 37 37">
<title>user</title>
<path d="M18.5 18.5c5.111 0 9.25-4.139 9.25-9.25s-4.139-9.25-9.25-9.25c-5.111 0-9.25 4.139-9.25 9.25s4.139 9.25 9.25 9.25zM18.5 23.125c-6.174 0-18.5 3.099-18.5 9.25v2.313c0 1.272 1.041 2.313 2.313 2.313h32.375c1.272 0 2.313-1.041 2.313-2.313v-2.313c0-6.151-12.326-9.25-18.5-9.25z"></path>
</symbol>
<symbol id="icon-X" viewBox="0 0 37 37">
<title>X</title>
<path d="M37 3.726l-3.726-3.726-14.774 14.774-14.774-14.774-3.726 3.726 14.774 14.774-14.774 14.774 3.726 3.726 14.774-14.774 14.774 14.774 3.726-3.726-14.774-14.774 14.774-14.774z"></path>
</symbol>
<symbol id="icon-checked" viewBox="0 0 37 37">
<title>checked</title>
<path  stroke-linejoin="miter" stroke-linecap="butt" stroke-miterlimit="4" stroke-width="0.5692" d="M5.57 17.793l-0.196-0.187-2.941 2.786 10.362 9.886 21.771-20.768-2.922-2.787-18.849 17.964-7.226-6.893z"></path>
</symbol>
<symbol id="icon-antenna-1" viewBox="0 0 37 37">
<title>antenna-1</title>
<path fill="#212121" style="fill: var(--color2, #212121)" d="M33.273 24.598l-8.443-8.505 0.937-4.615c0.242 0.094 0.499 0.144 0.758 0.146h0.006c1.192 0.014 2.17-0.941 2.184-2.133s-0.941-2.17-2.133-2.184c-1.192-0.014-2.17 0.941-2.184 2.133-0.003 0.255 0.039 0.509 0.125 0.749l-4.96 0.605-8.091-8.133c-0.099-0.101-0.235-0.159-0.377-0.16-0.14 0.001-0.274 0.056-0.373 0.155l-1.513 1.504c-0.208 0.208-0.208 0.546 0 0.754l0.814 0.826c-3.153 5.798-2.129 12.978 2.519 17.663 0.043 0.041 0.092 0.074 0.146 0.098-0.034 0.18-0.051 0.364-0.052 0.547v6.187h-6.4c-1.472 0.002-2.665 1.195-2.667 2.667v1.067c0 0.295 0.239 0.533 0.533 0.533h24.533c0.295 0 0.533-0.239 0.533-0.533v-1.067c-0.002-1.472-1.195-2.665-2.667-2.667h-6.4v-2.742c1.003 0.21 2.024 0.317 3.049 0.32 2.458-0.003 4.877-0.615 7.040-1.783l0.818 0.823c0.099 0.101 0.235 0.159 0.377 0.16 0.14-0.001 0.274-0.056 0.373-0.155l1.513-1.504c0.208-0.208 0.208-0.546 0-0.754zM25.78 8.733c0.418-0.415 1.093-0.414 1.508 0.004s0.414 1.093-0.004 1.508c-0.2 0.199-0.47 0.31-0.752 0.31h-0.003c-0.589-0.003-1.064-0.483-1.061-1.072 0.002-0.282 0.115-0.552 0.314-0.751h-0.002zM24.524 12.238l-0.598 2.946-1.175-1.182 1.774-1.763zM23.919 11.336l-1.92 1.909-1.485-1.493 3.405-0.415zM26.504 31.3c0.884 0 1.6 0.716 1.6 1.6v0.533h-23.467v-0.533c0-0.884 0.716-1.6 1.6-1.6h20.267zM19.037 29.167v1.067h-5.333v-1.067h5.333zM13.704 28.1v-4.053c0-1.294 1.196-2.347 2.667-2.347s2.667 1.053 2.667 2.347v4.053h-5.333zM20.104 26.404v-2.357c0-1.882-1.675-3.413-3.733-3.413-1.331-0.020-2.576 0.657-3.281 1.786-4.058-4.274-4.971-10.645-2.279-15.887l18.602 18.708c-2.872 1.461-6.165 1.873-9.309 1.163zM31.393 25.72l-21.057-21.181 0.755-0.752 7.935 7.98c0.004 0 0.006 0.007 0.010 0.010l13.115 13.191-0.757 0.752z"></path>
<path fill="#2196f3" style="fill: var(--color3, #2196f3)" d="M16.376 22.767h-0.005c-0.884-0.001-1.601 0.714-1.602 1.598s0.714 1.601 1.598 1.602h0.005c0.884 0.001 1.601-0.714 1.602-1.598s-0.714-1.601-1.598-1.602zM16.749 24.745c-0.1 0.1-0.236 0.156-0.378 0.155-0.295-0.002-0.532-0.242-0.531-0.536 0.001-0.141 0.057-0.276 0.157-0.375s0.233-0.154 0.373-0.155c0.295 0.002 0.532 0.241 0.53 0.536-0.001 0.141-0.057 0.276-0.157 0.375h0.005z"></path>
</symbol>
<symbol id="icon-astronaut-1" viewBox="0 0 37 37">
<title>astronaut-1</title>
<path fill="#2196f3" style="fill: var(--color3, #2196f3)" d="M34.474 7.024c-0.063-0.193-0.229-0.333-0.43-0.363l-1.91-0.278-0.855-1.731c-0.179-0.365-0.777-0.365-0.956 0l-0.855 1.731-1.91 0.278c-0.201 0.029-0.367 0.17-0.431 0.363-0.062 0.193-0.011 0.405 0.135 0.547l1.383 1.348-0.326 1.903c-0.034 0.2 0.048 0.402 0.212 0.522 0.166 0.121 0.382 0.135 0.562 0.040l1.709-0.899 1.709 0.899c0.078 0.041 0.164 0.061 0.249 0.061 0.11 0 0.221-0.034 0.314-0.102 0.164-0.119 0.246-0.322 0.212-0.522l-0.326-1.903 1.383-1.348c0.145-0.142 0.197-0.354 0.135-0.547zM32.011 8.351c-0.125 0.122-0.183 0.299-0.153 0.472l0.191 1.114-1-0.526c-0.078-0.041-0.163-0.061-0.249-0.061s-0.17 0.020-0.249 0.061l-1.001 0.526 0.191-1.114c0.030-0.173-0.028-0.349-0.153-0.472l-0.81-0.789 1.119-0.163c0.174-0.025 0.324-0.134 0.402-0.292l0.5-1.013 0.5 1.013c0.078 0.157 0.228 0.267 0.402 0.292l1.119 0.163-0.809 0.789z"></path>
<path fill="#2196f3" style="fill: var(--color3, #2196f3)" d="M28.634 23.022h-1.067v1.067h1.067v-1.067z"></path>
<path fill="#2196f3" style="fill: var(--color3, #2196f3)" d="M28.634 25.156h-1.067v1.067h1.067v-1.067z"></path>
<path fill="#2196f3" style="fill: var(--color3, #2196f3)" d="M29.7 24.089h-1.067v1.067h1.067v-1.067z"></path>
<path fill="#2196f3" style="fill: var(--color3, #2196f3)" d="M27.567 24.089h-1.067v1.067h1.067v-1.067z"></path>
<path fill="#2196f3" style="fill: var(--color3, #2196f3)" d="M24.9 28.889h-1.067v1.067h1.067v-1.067z"></path>
<path fill="#2196f3" style="fill: var(--color3, #2196f3)" d="M24.9 31.022h-1.067v1.067h1.067v-1.067z"></path>
<path fill="#2196f3" style="fill: var(--color3, #2196f3)" d="M25.967 29.956h-1.067v1.067h1.067v-1.067z"></path>
<path fill="#2196f3" style="fill: var(--color3, #2196f3)" d="M23.833 29.956h-1.067v1.067h1.067v-1.067z"></path>
<path fill="#2196f3" style="fill: var(--color3, #2196f3)" d="M18.5 26.756h-1.067v1.067h1.067v-1.067z"></path>
<path fill="#2196f3" style="fill: var(--color3, #2196f3)" d="M18.5 28.889h-1.067v1.067h1.067v-1.067z"></path>
<path fill="#2196f3" style="fill: var(--color3, #2196f3)" d="M19.567 27.822h-1.067v1.067h1.067v-1.067z"></path>
<path fill="#2196f3" style="fill: var(--color3, #2196f3)" d="M17.433 27.822h-1.067v1.067h1.067v-1.067z"></path>
<path fill="#2196f3" style="fill: var(--color3, #2196f3)" d="M8.367 8.622h-1.067v1.067h1.067v-1.067z"></path>
<path fill="#2196f3" style="fill: var(--color3, #2196f3)" d="M8.367 10.755h-1.067v1.067h1.067v-1.067z"></path>
<path fill="#2196f3" style="fill: var(--color3, #2196f3)" d="M9.433 9.689h-1.067v1.067h1.067v-1.067z"></path>
<path fill="#2196f3" style="fill: var(--color3, #2196f3)" d="M7.3 9.689h-1.067v1.067h1.067v-1.067z"></path>
<path fill="#212121" style="fill: var(--color2, #212121)" d="M27.215 16.659c-0.287-0.388-0.709-0.637-1.188-0.705-0.481-0.068-0.956 0.058-1.34 0.352l-1.252 0.96-1.898 1.417-1.358-0.541c2.421-1.086 4.114-3.508 4.114-6.32 0-3.823-3.123-6.933-6.961-6.933s-6.961 3.11-6.961 6.933c0 1.386 0.414 2.674 1.12 3.758l-2.764-0.024c-0.002 0-0.003 0-0.005 0-0.009 0-0.015 0.004-0.023 0.005-0.053 0.002-0.105 0.013-0.155 0.031-0.013 0.005-0.026 0.008-0.038 0.013-0.006 0.003-0.013 0.003-0.019 0.006l-3.233 1.596c-0.001 0-0.001 0-0.001 0.001l-1.893 0.911c-0.021 0.009-0.042 0.021-0.063 0.035-0.755 0.502-1.012 1.489-0.598 2.295 0.22 0.429 0.595 0.745 1.056 0.889 0.178 0.055 0.359 0.083 0.539 0.083 0.29 0 0.577-0.071 0.839-0.211l1.388-0.738 2.264-1.169 1.357-0.008-5.442 5.416c-0.001 0.001-0.001 0.001-0.002 0.001l-1.339 1.333c-0.316 0.315-0.49 0.732-0.49 1.178s0.174 0.863 0.49 1.179c0.325 0.323 0.752 0.485 1.179 0.485s0.854-0.162 1.18-0.485l1.314-1.309 1.741-1.3 0.901 0.897-1.762 1.754c0 0.001-0.001 0.001-0.002 0.001l-1.339 1.333c-0.316 0.315-0.49 0.732-0.49 1.178s0.174 0.863 0.49 1.179c0.325 0.323 0.753 0.485 1.18 0.485s0.855-0.162 1.18-0.485l3.482-3.467c0.001-0.001 0.001-0.001 0.001-0.002l1.010-1-0.004-0.004c0.006-0.006 0.015-0.009 0.022-0.015l5.166-5.658 3.471 0.494c0.025 0.004 0.050 0.005 0.075 0.005 0.065 0 0.127-0.015 0.187-0.038 0.018-0.006 0.033-0.015 0.050-0.023 0.019-0.010 0.039-0.015 0.058-0.027l3.213-2.133c0.012-0.008 0.018-0.021 0.029-0.029 0.013-0.010 0.029-0.014 0.041-0.026l1.271-1.191c0.662-0.62 0.753-1.635 0.212-2.362zM4.63 20.27c-0.173 0.093-0.37 0.111-0.558 0.052-0.187-0.058-0.338-0.186-0.427-0.358-0.161-0.314-0.068-0.695 0.214-0.902l1.314-0.632 0.449 1.313-0.992 0.527zM8.128 18.442l-1.548 0.8-0.439-1.283 2.027-1.001-0.040 1.484zM23.227 11.822c0 0.918-0.219 1.785-0.599 2.559l-4.181-1.899c-0.044-0.573-0.341-1.075-0.788-1.388l1.464-4.86c2.378 0.756 4.105 2.974 4.105 5.588zM11.438 11.822c0-3.235 2.644-5.867 5.894-5.867 0.253 0 0.5 0.021 0.745 0.052l-1.432 4.754c-0.019-0.001-0.037-0.006-0.057-0.006-1.033 0-1.873 0.837-1.873 1.867s0.84 1.867 1.873 1.867c0.694 0 1.294-0.383 1.618-0.945l3.862 1.755c-1.075 1.446-2.795 2.39-4.737 2.39-3.25 0-5.894-2.632-5.894-5.867zM17.394 12.622c0 0.441-0.362 0.8-0.806 0.8s-0.806-0.359-0.806-0.8c0-0.441 0.362-0.8 0.806-0.8s0.806 0.359 0.806 0.8zM4.965 27.646c-0.236 0.234-0.619 0.234-0.854 0.001-0.114-0.114-0.176-0.263-0.176-0.423s0.062-0.309 0.176-0.421l0.962-0.959 0.851 0.848-0.959 0.955zM8.179 31.38c-0.236 0.234-0.619 0.235-0.855 0.001-0.114-0.114-0.176-0.263-0.176-0.423s0.062-0.309 0.176-0.421l0.963-0.959 0.852 0.848-0.96 0.955zM11.66 27.911c-0.001 0-0.001 0-0.002 0.001l-1.765 1.76-0.852-0.848 1.763-1.755c0 0 0 0 0 0s0.001-0.001 0.002-0.001c0.040-0.040 0.065-0.088 0.090-0.135 0.007-0.014 0.020-0.026 0.026-0.040 0.017-0.041 0.019-0.085 0.026-0.129 0.003-0.025 0.014-0.047 0.014-0.073 0-0.036-0.013-0.070-0.020-0.106-0.006-0.032-0.006-0.065-0.019-0.095-0.020-0.050-0.055-0.094-0.091-0.138-0.010-0.012-0.014-0.027-0.025-0.038 0 0 0 0-0.001 0s-0.001-0.002-0.001-0.002l-1.607-1.6c-0.017-0.017-0.039-0.024-0.058-0.038-0.028-0.022-0.055-0.042-0.087-0.058-0.030-0.015-0.061-0.024-0.093-0.033-0.034-0.010-0.067-0.017-0.103-0.020-0.033-0.002-0.063 0.001-0.095 0.005-0.036 0.004-0.069 0.009-0.104 0.020s-0.063 0.027-0.094 0.045c-0.020 0.011-0.042 0.015-0.061 0.029l-1.773 1.324-0.901-0.897 2.399-2.386 4.361 4.289-0.928 0.919zM18.479 20.894c-0.015-0.002-0.030 0.004-0.045 0.003-0.039-0.002-0.076 0.001-0.115 0.007-0.030 0.005-0.059 0.011-0.088 0.021-0.034 0.012-0.065 0.028-0.097 0.047-0.030 0.018-0.057 0.037-0.083 0.061-0.013 0.011-0.028 0.017-0.040 0.029l-4.698 5.146-4.328-4.257 2.833-2.818c0.209-0.208 0.21-0.546 0.002-0.755-0.105-0.105-0.243-0.157-0.381-0.156v-0.001l-2.219 0.013 0.028-1.607 3.104 0.027c1.265 1.294 3.029 2.101 4.981 2.101 0.437 0 0.864-0.045 1.279-0.123 0.040 0.032 0.079 0.065 0.13 0.085l2.41 0.96 0.152 0.758 0.178 0.885-3.003-0.427zM22.52 21.072l-0.313-1.558 1.446-1.080 0.947 1.257-2.080 1.381zM26.274 18.241l-0.838 0.785-0.931-1.236 0.831-0.637c0.155-0.119 0.351-0.168 0.543-0.143 0.193 0.027 0.364 0.128 0.48 0.284 0.217 0.292 0.18 0.699-0.085 0.947z"></path>
<path fill="#212121" style="fill: var(--color2, #212121)" d="M16.102 21.044l-2.143-2.133c-0.207-0.207-0.545-0.207-0.753 0l-2.142 2.133c-0.1 0.101-0.157 0.236-0.157 0.378s0.056 0.278 0.157 0.378l2.142 2.133c0.104 0.103 0.241 0.155 0.377 0.155s0.273-0.052 0.376-0.155l2.143-2.133c0.1-0.1 0.157-0.236 0.157-0.378s-0.057-0.278-0.157-0.378zM13.583 22.803l-1.387-1.381 1.387-1.381 1.387 1.381-1.387 1.381z"></path>
<path fill="#212121" style="fill: var(--color2, #212121)" d="M19.664 7.571l-0.258 1.036c0.071 0.018 1.738 0.452 1.738 2.149h1.067c0-2.017-1.666-2.965-2.547-3.185z"></path>
<path fill="#212121" style="fill: var(--color2, #212121)" d="M22.211 11.822h-1.067v1.067h1.067v-1.067z"></path>
</symbol>
<symbol id="icon-clock-1" viewBox="0 0 37 37">
<title>clock-1</title>
<path fill="#212121" style="fill: var(--color2, #212121)" d="M33.797 17.801c-0.002-8.452-6.855-15.303-15.308-15.301s-15.303 6.855-15.301 15.308c0.001 6.658 4.307 12.551 10.649 14.576 0.061 0.019 0.124 0.029 0.187 0.029 0.121 0 0.239-0.032 0.342-0.094 0.135-0.080 0.236-0.207 0.283-0.356l3.865-12.25c1.057-0.005 1.909-0.866 1.903-1.923s-0.866-1.909-1.923-1.903c-0.284 0.001-0.565 0.067-0.82 0.191l-5.106-5.107c-0.253-0.245-0.657-0.238-0.902 0.016-0.239 0.247-0.239 0.639 0 0.886l5.103 5.109c-0.392 0.799-0.168 1.764 0.536 2.309l-3.683 11.673c-7.278-2.681-11.004-10.754-8.323-18.032s10.754-11.004 18.032-8.323 11.004 10.754 8.323 18.032c-1.31 3.556-4.001 6.431-7.462 7.973l-0.398-1.874c-0.073-0.344-0.411-0.565-0.756-0.492-0.109 0.023-0.209 0.074-0.292 0.148l-3.837 3.426c-0.263 0.234-0.287 0.637-0.052 0.9 0.076 0.085 0.174 0.149 0.283 0.184l4.899 1.563c0.335 0.108 0.694-0.077 0.802-0.412 0.034-0.106 0.040-0.219 0.017-0.328l-0.391-1.839c5.664-2.388 9.342-7.942 9.329-14.089zM18.492 17.164c0.352 0 0.638 0.286 0.638 0.638s-0.286 0.638-0.638 0.638c-0.352 0-0.638-0.285-0.638-0.638s0.285-0.638 0.638-0.638zM20.593 32.028l2.184-1.948 0.603 2.84-2.787-0.892z"></path>
<path fill="#2196f3" style="fill: var(--color3, #2196f3)" d="M17.854 5.685v1.275c0 0.352 0.285 0.638 0.638 0.638s0.638-0.285 0.638-0.638v-1.275c0-0.352-0.286-0.638-0.638-0.638s-0.638 0.286-0.638 0.638z"></path>
<path fill="#2196f3" style="fill: var(--color3, #2196f3)" d="M6.376 17.164c-0.352 0-0.638 0.286-0.638 0.638s0.285 0.638 0.638 0.638h1.275c0.352 0 0.638-0.285 0.638-0.638s-0.285-0.638-0.638-0.638h-1.275z"></path>
<path fill="#2196f3" style="fill: var(--color3, #2196f3)" d="M30.608 18.439c0.352 0 0.638-0.285 0.638-0.638s-0.285-0.638-0.638-0.638h-1.275c-0.352 0-0.638 0.286-0.638 0.638s0.286 0.638 0.638 0.638h1.275z"></path>
</symbol>
<symbol id="icon-diagram-1" viewBox="0 0 37 37">
<title>diagram-1</title>
<path fill="#2196f3" style="fill: var(--color3, #2196f3)" d="M17.426 17.465h1.066v4.798h-1.066v-4.797z"></path>
<path fill="#2196f3" style="fill: var(--color3, #2196f3)" d="M21.69 19.597h1.066v2.665h-1.066v-2.665z"></path>
<path fill="#2196f3" style="fill: var(--color3, #2196f3)" d="M13.161 21.196h1.066v1.066h-1.066v-1.066z"></path>
<path fill="#2196f3" style="fill: var(--color3, #2196f3)" d="M9.963 20.663h1.066v1.599h-1.066v-1.599z"></path>
<path fill="#212121" style="fill: var(--color2, #212121)" d="M4.099 30.791h25.587c0.883 0 1.599-0.716 1.599-1.599v-2.132c0-0.883-0.716-1.599-1.599-1.599h-0.533v-13.293l3.028-2.868c0.703 0.346 1.553 0.136 2.013-0.499s0.396-1.508-0.152-2.068-1.42-0.644-2.065-0.198c-0.644 0.446-0.873 1.292-0.542 2.002l-2.281 2.163v-1.23c0-0.883-0.716-1.599-1.599-1.599h-21.322c-0.883 0-1.599 0.716-1.599 1.599v15.992h-0.533c-0.883 0-1.599 0.716-1.599 1.599v2.132c0 0.883 0.716 1.599 1.599 1.599zM32.884 7.337c0.294 0 0.533 0.239 0.533 0.533s-0.239 0.533-0.533 0.533c-0.294 0-0.533-0.239-0.533-0.533s0.239-0.533 0.533-0.533zM5.698 9.469c0-0.294 0.239-0.533 0.533-0.533h21.322c0.294 0 0.533 0.239 0.533 0.533v2.239l-1.066 1.013v-2.186c0-0.294-0.239-0.533-0.533-0.533h-19.19c-0.294 0-0.533 0.239-0.533 0.533v13.326c0 0.294 0.239 0.533 0.533 0.533h19.19c0.294 0 0.533-0.239 0.533-0.533v-9.674l1.066-1.010v12.284h-22.388v-15.992zM10.496 16.399c-0.721-0.002-1.354 0.478-1.546 1.174s0.105 1.433 0.725 1.801c0.62 0.368 1.41 0.276 1.928-0.226l1.853 0.93c0.215 0.108 0.476 0.057 0.636-0.123l3.939-4.431 3.872 2.901c0.208 0.156 0.498 0.139 0.686-0.039l3.365-3.188v8.131h-18.124v-12.26h18.124v2.66l-3.771 3.572-3.904-2.927c-0.222-0.166-0.534-0.135-0.718 0.072l-3.993 4.493-1.493-0.746c0.011-0.064 0.018-0.129 0.020-0.193 0-0.883-0.716-1.599-1.599-1.599zM11.029 17.998c0 0.294-0.239 0.533-0.533 0.533s-0.533-0.239-0.533-0.533c0-0.294 0.239-0.533 0.533-0.533s0.533 0.239 0.533 0.533zM14.227 26.526h5.331v0.533c0 0.294-0.239 0.533-0.533 0.533h-4.264c-0.294 0-0.533-0.239-0.533-0.533v-0.533zM3.566 27.060c0-0.294 0.239-0.533 0.533-0.533h9.062v0.533c0 0.883 0.716 1.599 1.599 1.599h4.264c0.883 0 1.599-0.716 1.599-1.599v-0.533h9.062c0.294 0 0.533 0.239 0.533 0.533v2.132c0 0.294-0.239 0.533-0.533 0.533h-25.587c-0.294 0-0.533-0.239-0.533-0.533v-2.132z"></path>
</symbol>
<symbol id="icon-company-1" viewBox="0 0 37 37">
<title>company-1</title>
<path d="M8.875 3l4.652 4.404-8.634-0.005v21.365h22.568v-8.169l4.646 4.399v-21.993h-23.232zM27.257 20.078l-13.189-12.486h13.189v12.486zM23.162 25.638h-14.698v-14.369h1.039v13.396h13.659v0.973zM11.935 31.608l-0.543 1.118-0.543-1.118h-0.455l0.792 1.491v0.869h0.412v-0.869l0.791-1.491h-0.454zM12.617 33.967l0.191-0.549h0.914l0.193 0.549h0.428l-0.893-2.359h-0.368l-0.891 2.359h0.426zM13.265 32.109l0.342 0.979h-0.684l0.342-0.979zM15.427 33.031c-0.059 0.091-0.089 0.191-0.089 0.3 0 0.199 0.070 0.36 0.209 0.485 0.14 0.123 0.327 0.185 0.561 0.185s0.434-0.063 0.603-0.19l0.133 0.157h0.457l-0.347-0.41c0.136-0.186 0.204-0.424 0.204-0.715h-0.342c0 0.159-0.033 0.303-0.099 0.433l-0.455-0.538 0.16-0.117c0.113-0.082 0.195-0.164 0.245-0.246s0.075-0.174 0.075-0.272c0-0.149-0.055-0.274-0.165-0.375-0.109-0.102-0.25-0.152-0.421-0.152-0.19 0-0.341 0.054-0.454 0.162-0.112 0.107-0.169 0.253-0.169 0.438 0 0.076 0.018 0.154 0.053 0.235 0.037 0.081 0.101 0.179 0.193 0.295-0.175 0.125-0.292 0.234-0.352 0.326zM16.492 33.553c-0.116 0.089-0.24 0.133-0.373 0.133-0.118 0-0.212-0.034-0.282-0.102s-0.105-0.157-0.105-0.266c0-0.127 0.065-0.239 0.194-0.337l0.050-0.036 0.515 0.608zM16.069 32.507c-0.111-0.137-0.167-0.251-0.167-0.342 0-0.079 0.023-0.144 0.068-0.196s0.106-0.078 0.183-0.078c0.071 0 0.13 0.022 0.177 0.066 0.046 0.043 0.070 0.096 0.070 0.157 0 0.093-0.034 0.169-0.101 0.229l-0.050 0.041-0.18 0.123zM19.909 33.789c0.162-0.142 0.255-0.338 0.279-0.59h-0.408c-0.022 0.169-0.073 0.289-0.154 0.361s-0.202 0.109-0.363 0.109c-0.176 0-0.31-0.067-0.402-0.201-0.091-0.134-0.136-0.328-0.136-0.583v-0.209c0.002-0.252 0.051-0.442 0.146-0.572 0.096-0.131 0.233-0.196 0.412-0.196 0.153 0 0.27 0.038 0.348 0.113 0.080 0.075 0.13 0.197 0.149 0.366h0.408c-0.026-0.258-0.118-0.458-0.277-0.6s-0.368-0.212-0.629-0.212c-0.193 0-0.364 0.046-0.512 0.138-0.147 0.092-0.26 0.223-0.339 0.392s-0.118 0.366-0.118 0.588v0.22c0.003 0.217 0.044 0.408 0.121 0.572s0.188 0.291 0.331 0.381c0.144 0.089 0.309 0.133 0.497 0.133 0.269 0 0.485-0.070 0.647-0.211zM22.319 33.459c0.080-0.175 0.12-0.378 0.12-0.609v-0.131c-0.001-0.23-0.042-0.431-0.123-0.604-0.081-0.174-0.196-0.307-0.345-0.399-0.148-0.093-0.318-0.139-0.51-0.139s-0.363 0.047-0.512 0.141c-0.148 0.093-0.263 0.227-0.345 0.404-0.081 0.176-0.122 0.379-0.122 0.609v0.133c0.001 0.226 0.042 0.425 0.123 0.598s0.198 0.306 0.347 0.4c0.15 0.093 0.321 0.139 0.512 0.139 0.193 0 0.364-0.046 0.512-0.139 0.149-0.094 0.264-0.228 0.344-0.402zM21.88 32.125c0.099 0.139 0.149 0.34 0.149 0.601v0.123c0 0.266-0.049 0.468-0.148 0.606-0.097 0.138-0.237 0.207-0.418 0.207-0.179 0-0.32-0.071-0.421-0.212-0.101-0.142-0.151-0.342-0.151-0.601v-0.136c0.002-0.254 0.053-0.45 0.152-0.588 0.101-0.139 0.239-0.209 0.417-0.209 0.181 0 0.321 0.070 0.42 0.209z"></path>
</symbol>
<symbol id="icon-company-2" viewBox="0 0 37 37">
<title>company-2</title>
<path d="M16.736 6.4h-0.072c-0.11-0.007-0.22-0.009-0.33-0.012v0h-0.239c-0.208 0-0.421 0.005-0.632 0.016-0.016-0.001-0.032-0.001-0.048 0-1.912 0.108-3.785 0.586-5.517 1.407l-0.227 0.109v11.615l0.531-0.18c0.466-0.16 0.962-0.304 1.476-0.438 1.388-0.356 2.814-0.546 4.247-0.564v1.526c-0.19 0.001-0.374 0.007-0.559 0.016h-0.044c-1.103 0.061-2.197 0.228-3.267 0.502-1.356 0.339-2.663 0.849-3.892 1.517v-14.897c1.276-0.744 2.651-1.304 4.083-1.661 1.258-0.325 2.55-0.491 3.848-0.496h0.224c0.268 0.007 0.53 0.019 0.775 0.037 0.647 0.045 1.288 0.148 1.918 0.305v1.502c-0.611-0.142-1.232-0.236-1.858-0.28-0.013-0.001-0.025-0.002-0.038-0.003-0.129-0.011-0.259-0.022-0.38-0.022zM19.379 7.936c0.333 0.025 0.678 0.037 1.027 0.037 1.365-0.005 2.724-0.179 4.046-0.519 1.355-0.341 2.662-0.851 3.891-1.518v14.631c-1.277 0.744-2.652 1.303-4.085 1.661-1.258 0.323-2.55 0.49-3.849 0.495-0.984 0.008-1.964-0.108-2.92-0.344v-14.726c0.226 0.052 0.458 0.1 0.694 0.14 0.387 0.065 0.796 0.113 1.194 0.143zM26.826 8.049l-0.531 0.179c-0.488 0.164-0.981 0.311-1.476 0.442-1.441 0.37-2.922 0.56-4.41 0.566-0.346 0-0.665-0.009-0.973-0.029l-0.423-0.028v11.949l0.364 0.032c0.337 0.029 0.685 0.044 1.035 0.044 1.172-0.005 2.338-0.156 3.473-0.45 0.934-0.234 1.843-0.561 2.714-0.975l0.227-0.109v-11.619z"></path>
<path d="M9.194 27.005c-0.076-0.079-0.168-0.141-0.27-0.182s-0.211-0.060-0.321-0.056c-0.117-0.002-0.233 0.020-0.341 0.064-0.099 0.040-0.19 0.099-0.265 0.175s-0.133 0.167-0.171 0.267c-0.042 0.105-0.062 0.217-0.061 0.329v1.99c-0.005 0.14 0.022 0.28 0.078 0.408 0.047 0.102 0.115 0.193 0.199 0.267 0.080 0.067 0.173 0.115 0.273 0.141 0.097 0.027 0.197 0.041 0.297 0.041 0.111 0.001 0.221-0.023 0.321-0.069 0.099-0.044 0.19-0.106 0.265-0.184 0.074-0.077 0.133-0.168 0.174-0.267 0.043-0.1 0.064-0.208 0.064-0.317v-0.223h-0.52v0.177c0.002 0.061-0.009 0.121-0.031 0.177-0.017 0.042-0.043 0.081-0.076 0.112-0.032 0.026-0.069 0.046-0.109 0.057-0.035 0.012-0.072 0.018-0.109 0.019-0.046 0.005-0.093-0.002-0.136-0.020s-0.080-0.049-0.108-0.086c-0.049-0.080-0.073-0.173-0.069-0.267v-1.856c-0.003-0.103 0.019-0.205 0.064-0.297 0.027-0.042 0.065-0.076 0.11-0.097s0.095-0.029 0.145-0.023c0.045-0.002 0.089 0.008 0.13 0.027s0.076 0.049 0.102 0.085c0.058 0.076 0.089 0.171 0.086 0.267v0.172h0.515v-0.203c0.001-0.119-0.021-0.237-0.064-0.348-0.038-0.104-0.098-0.2-0.174-0.28v0z"></path>
<path d="M12.285 26.982c-0.166-0.14-0.375-0.217-0.592-0.219-0.106 0-0.211 0.019-0.311 0.056-0.101 0.036-0.194 0.091-0.275 0.163-0.086 0.077-0.155 0.173-0.202 0.279-0.052 0.122-0.078 0.253-0.076 0.386v1.909c-0.004 0.134 0.022 0.268 0.076 0.391 0.047 0.103 0.116 0.194 0.202 0.267 0.080 0.074 0.173 0.131 0.275 0.168 0.1 0.037 0.205 0.056 0.311 0.056s0.211-0.019 0.31-0.056c0.104-0.038 0.199-0.095 0.281-0.168s0.15-0.165 0.196-0.267c0.053-0.123 0.079-0.257 0.076-0.391v-1.909c0.003-0.132-0.023-0.264-0.076-0.386-0.046-0.105-0.113-0.2-0.196-0.279v0zM12.042 29.556c0.004 0.051-0.003 0.102-0.021 0.15s-0.046 0.091-0.083 0.126c-0.069 0.058-0.155 0.089-0.245 0.089s-0.176-0.032-0.245-0.089c-0.037-0.035-0.065-0.078-0.083-0.126s-0.025-0.099-0.021-0.15v-1.909c-0.004-0.051 0.003-0.102 0.021-0.15s0.046-0.091 0.083-0.126c0.069-0.058 0.155-0.089 0.245-0.089s0.176 0.032 0.245 0.089c0.037 0.035 0.065 0.078 0.083 0.126s0.025 0.099 0.021 0.15v1.909z"></path>
<path d="M16.344 30.408v-3.614h-0.5l-0.657 1.913h-0.009l-0.662-1.913h-0.495v3.614h0.516v-2.198h0.009l0.506 1.554h0.257l0.51-1.554h0.009v2.198h0.516z"></path>
<path d="M19.277 27.048c-0.080-0.089-0.18-0.157-0.292-0.197-0.121-0.039-0.247-0.058-0.374-0.056h-0.767v3.614h0.515v-1.411h0.265c0.161 0.007 0.321-0.027 0.464-0.099 0.117-0.065 0.215-0.16 0.283-0.276 0.060-0.096 0.1-0.203 0.118-0.315 0.020-0.136 0.030-0.273 0.028-0.411 0.005-0.174-0.012-0.347-0.050-0.516-0.034-0.125-0.1-0.239-0.19-0.332v0zM19.012 28.15c-0.002 0.065-0.019 0.13-0.048 0.188-0.029 0.056-0.076 0.1-0.133 0.127-0.076 0.034-0.159 0.050-0.243 0.045h-0.235v-1.229h0.265c0.080-0.004 0.16 0.012 0.232 0.045 0.053 0.031 0.096 0.077 0.121 0.133 0.028 0.063 0.044 0.132 0.045 0.201 0 0.076 0 0.156 0 0.24s0.005 0.171 0 0.248h-0.005z"></path>
<path d="M21.716 26.794h-0.422l-0.796 3.614h0.515l0.151-0.776h0.702l0.151 0.776h0.515l-0.816-3.614zM21.241 29.14l0.253-1.31h0.009l0.252 1.31h-0.515z"></path>
<path d="M25.043 28.971h-0.009l-0.778-2.177h-0.495v3.614h0.515v-2.173h0.011l0.787 2.173h0.484v-3.614h-0.515v2.177z"></path>
<path d="M28.19 26.794l-0.414 1.437h-0.011l-0.414-1.437h-0.545l0.707 2.086v1.527h0.515v-1.527l0.707-2.086h-0.545z"></path>
<path d="M7.758 31.428h0.248v0.696h0.168v-0.696h0.247v-0.143h-0.664v0.143z"></path>
<path d="M9.844 31.286l-0.325 0.839h0.179l0.069-0.191h0.334l0.072 0.191h0.183l-0.333-0.839h-0.179zM9.818 31.793l0.114-0.311 0.114 0.311h-0.228z"></path>
<path d="M11.907 31.815h0.194v0.108c-0.057 0.045-0.127 0.070-0.199 0.071-0.034 0.002-0.068-0.004-0.099-0.018s-0.058-0.035-0.079-0.062c-0.044-0.064-0.066-0.141-0.062-0.219 0-0.187 0.081-0.28 0.242-0.28 0.042-0.004 0.085 0.007 0.119 0.031s0.060 0.061 0.070 0.102l0.166-0.032c-0.036-0.164-0.154-0.247-0.356-0.247-0.108-0.003-0.213 0.036-0.293 0.108-0.042 0.042-0.075 0.092-0.096 0.148s-0.029 0.115-0.025 0.175c-0.005 0.115 0.033 0.227 0.107 0.315 0.041 0.042 0.091 0.075 0.146 0.096s0.114 0.030 0.173 0.026c0.131 0.004 0.259-0.044 0.356-0.133v-0.331h-0.364v0.141z"></path>
<path d="M14.013 31.286h-0.17v0.839h0.588v-0.143h-0.418v-0.696z"></path>
<path d="M15.794 31.286h-0.17v0.839h0.17v-0.839z"></path>
<path d="M17.535 31.846l-0.344-0.56h-0.165v0.839h0.158v-0.548l0.337 0.548h0.169v-0.839h-0.155v0.56z"></path>
<path d="M19.109 31.755h0.418v-0.143h-0.418v-0.184h0.45v-0.143h-0.62v0.839h0.637v-0.143h-0.467v-0.227z"></path>
<path d="M22.925 31.617h-0.33v-0.331h-0.169v0.839h0.169v-0.367h0.33v0.367h0.169v-0.839h-0.169v0.331z"></path>
<path d="M24.508 31.755h0.419v-0.143h-0.419v-0.184h0.451v-0.143h-0.62v0.839h0.636v-0.143h-0.467v-0.227z"></path>
<path d="M26.656 31.755c0.146-0.023 0.22-0.1 0.22-0.233 0.004-0.036-0.001-0.072-0.016-0.105s-0.038-0.061-0.067-0.082c-0.076-0.038-0.161-0.055-0.245-0.049h-0.356v0.839h0.169v-0.351h0.033c0.036-0.002 0.072 0.004 0.105 0.019 0.025 0.015 0.045 0.036 0.060 0.061l0.183 0.267h0.202l-0.102-0.164c-0.045-0.081-0.109-0.15-0.186-0.201v0zM26.486 31.639h-0.125v-0.211h0.133c0.058-0.005 0.116 0.002 0.171 0.020 0.012 0.011 0.022 0.024 0.028 0.039s0.009 0.031 0.009 0.048c-0.001 0.016-0.005 0.032-0.013 0.047s-0.019 0.027-0.032 0.037c-0.055 0.017-0.113 0.024-0.171 0.020v0z"></path>
<path d="M28.275 31.755h0.418v-0.143h-0.418v-0.184h0.451v-0.143h-0.621v0.839h0.637v-0.143h-0.467v-0.227z"></path>
</symbol>
<symbol id="icon-company-3" viewBox="0 0 37 37">
<title>company-3</title>
<path d="M10.498 29.066c0.008 0 0.017 0.002 0.025 0.005s0.015 0.007 0.020 0.013l0.116 0.111c-0.090 0.090-0.202 0.162-0.327 0.211-0.147 0.053-0.305 0.079-0.464 0.076-0.149 0.003-0.298-0.021-0.436-0.071-0.125-0.045-0.237-0.113-0.329-0.2-0.094-0.089-0.166-0.194-0.212-0.308-0.051-0.127-0.076-0.261-0.074-0.396-0.002-0.135 0.025-0.27 0.080-0.397 0.051-0.115 0.127-0.22 0.225-0.308 0.099-0.087 0.218-0.155 0.349-0.201 0.143-0.048 0.296-0.072 0.449-0.071 0.143-0.003 0.285 0.019 0.417 0.064 0.115 0.043 0.221 0.104 0.313 0.178l-0.097 0.119c-0.007 0.008-0.015 0.016-0.025 0.021-0.011 0.007-0.025 0.010-0.039 0.009-0.015-0.001-0.030-0.005-0.042-0.013l-0.052-0.032-0.073-0.040c-0.031-0.015-0.064-0.028-0.097-0.039-0.043-0.013-0.087-0.024-0.132-0.032-0.057-0.009-0.115-0.013-0.173-0.013-0.111-0.001-0.22 0.017-0.323 0.053-0.096 0.034-0.182 0.084-0.253 0.149-0.073 0.069-0.128 0.15-0.164 0.238-0.041 0.101-0.061 0.207-0.060 0.313-0.002 0.108 0.018 0.216 0.060 0.318 0.035 0.087 0.090 0.167 0.161 0.236 0.067 0.064 0.149 0.114 0.241 0.147 0.095 0.034 0.197 0.051 0.3 0.050 0.059 0.001 0.119-0.003 0.177-0.010 0.096-0.010 0.188-0.039 0.269-0.085 0.041-0.023 0.079-0.049 0.115-0.078 0.015-0.012 0.035-0.020 0.055-0.020v0z"></path>
<path d="M13.857 28.507c0.002 0.134-0.025 0.267-0.079 0.393-0.047 0.114-0.122 0.218-0.219 0.305s-0.214 0.155-0.344 0.2c-0.285 0.094-0.599 0.094-0.884 0-0.129-0.046-0.245-0.114-0.342-0.201-0.097-0.089-0.172-0.194-0.221-0.308-0.105-0.255-0.105-0.533 0-0.787 0.050-0.115 0.125-0.22 0.221-0.31 0.097-0.084 0.214-0.15 0.342-0.193 0.284-0.096 0.6-0.096 0.884 0 0.129 0.046 0.246 0.114 0.343 0.201 0.096 0.088 0.17 0.191 0.22 0.304 0.054 0.127 0.081 0.261 0.079 0.395zM13.552 28.507c0.002-0.107-0.016-0.214-0.055-0.316-0.033-0.087-0.086-0.168-0.156-0.236-0.068-0.065-0.152-0.116-0.246-0.149-0.207-0.069-0.436-0.069-0.643 0-0.094 0.033-0.178 0.084-0.246 0.149-0.071 0.068-0.125 0.149-0.157 0.236-0.074 0.206-0.074 0.426 0 0.632 0.033 0.087 0.086 0.168 0.157 0.236 0.068 0.065 0.152 0.115 0.246 0.148 0.207 0.067 0.436 0.067 0.643 0 0.094-0.033 0.178-0.083 0.246-0.148 0.070-0.069 0.123-0.149 0.156-0.236 0.039-0.102 0.058-0.209 0.055-0.316v0z"></path>
<path d="M16.149 28.838l0.031 0.071c0.012-0.025 0.022-0.048 0.033-0.071s0.024-0.047 0.038-0.070l0.743-1.174c0.015-0.020 0.028-0.033 0.042-0.037 0.020-0.005 0.040-0.007 0.061-0.006h0.22v1.909h-0.26v-1.404c0-0.018 0-0.038 0-0.059-0.001-0.022-0.001-0.044 0-0.066l-0.747 1.19c-0.009 0.018-0.025 0.033-0.044 0.043s-0.041 0.016-0.064 0.016h-0.042c-0.023 0-0.045-0.005-0.064-0.016s-0.034-0.026-0.044-0.044l-0.769-1.198c0 0.023 0 0.046 0 0.068s0 0.043 0 0.061v1.404h-0.252v-1.905h0.22c0.021-0.001 0.041 0.001 0.061 0.006 0.018 0.008 0.032 0.021 0.041 0.037l0.759 1.175c0.015 0.022 0.028 0.045 0.038 0.068v0z"></path>
<path d="M18.945 28.743v0.715h-0.291v-1.906h0.649c0.122-0.002 0.245 0.012 0.362 0.042 0.094 0.023 0.181 0.064 0.256 0.119 0.065 0.052 0.114 0.116 0.145 0.187 0.034 0.078 0.051 0.161 0.049 0.244 0.001 0.084-0.017 0.167-0.054 0.244-0.035 0.073-0.089 0.138-0.157 0.191-0.075 0.057-0.162 0.1-0.257 0.126-0.113 0.031-0.232 0.046-0.35 0.044l-0.352-0.005zM18.945 28.539h0.352c0.076 0.001 0.153-0.009 0.225-0.029 0.060-0.018 0.116-0.046 0.163-0.082 0.044-0.035 0.078-0.078 0.099-0.126 0.024-0.051 0.036-0.105 0.035-0.16 0.003-0.053-0.007-0.106-0.029-0.155s-0.057-0.094-0.102-0.13c-0.111-0.075-0.251-0.112-0.391-0.102h-0.352v0.786z"></path>
<path d="M22.854 29.461h-0.23c-0.023 0.001-0.046-0.006-0.064-0.018-0.016-0.012-0.029-0.027-0.038-0.044l-0.198-0.461h-0.993l-0.205 0.461c-0.008 0.017-0.020 0.032-0.036 0.043-0.018 0.013-0.042 0.020-0.065 0.019h-0.23l0.872-1.909h0.302l0.884 1.909zM21.414 28.752h0.82l-0.346-0.777c-0.026-0.058-0.048-0.118-0.065-0.179l-0.033 0.1c-0.010 0.030-0.022 0.058-0.032 0.081l-0.343 0.776z"></path>
<path d="M24.11 27.561c0.017 0.008 0.032 0.020 0.044 0.034l1.272 1.439c0-0.023 0-0.046 0-0.067s0-0.043 0-0.063v-1.352h0.26v1.909h-0.145c-0.021 0.001-0.041-0.003-0.060-0.011-0.018-0.009-0.034-0.021-0.047-0.035l-1.271-1.438c0.001 0.022 0.001 0.044 0 0.066 0 0.021 0 0.040 0 0.058v1.361h-0.26v-1.909h0.154c0.018 0 0.036 0.003 0.052 0.009v0z"></path>
<path d="M27.83 28.702v0.758h-0.291v-0.758l-0.804-1.15h0.26c0.022-0.001 0.045 0.005 0.063 0.016 0.016 0.012 0.029 0.027 0.039 0.043l0.503 0.742c0.020 0.032 0.038 0.061 0.052 0.088s0.026 0.054 0.036 0.081l0.038-0.082c0.014-0.030 0.031-0.059 0.049-0.087l0.496-0.747c0.010-0.015 0.023-0.028 0.038-0.040 0.017-0.013 0.040-0.020 0.063-0.019h0.263l-0.806 1.155z"></path>
<path d="M16.005 24.348c0.127 0.014 0.254 0.025 0.384 0.035 1.962-0.763 3.622-2.011 4.772-3.588s1.74-3.415 1.695-5.282l-2.162-1.879c0.44 1.988 0.234 4.043-0.594 5.935s-2.246 3.547-4.094 4.779v0z"></path>
<path d="M15.233 24.261l0.058 0.010c1.975-1.228 3.481-2.942 4.323-4.921s0.981-4.133 0.399-6.181l-3.080-2.676c1.246 2.2 1.747 4.661 1.446 7.098s-1.393 4.75-3.147 6.67v0z"></path>
<path d="M25.677 17.719c-0.523 2.052-1.794 3.902-3.624 5.276-0.534 0.404-1.111 0.763-1.722 1.074 1.49-0.38 2.859-1.053 4.003-1.966s2.030-2.042 2.592-3.3l-1.249-1.084z"></path>
<path d="M25.187 17.417l-1.778-1.545c-0.034 1.762-0.61 3.483-1.669 4.986s-2.562 2.731-4.352 3.559h0.009c0.399 0 0.798-0.021 1.194-0.062 1.673-0.593 3.151-1.537 4.303-2.748s1.94-2.65 2.295-4.189v0z"></path>
<path d="M15.49 9.364l-2.122-1.846c-1.897 0.637-3.528 1.756-4.68 3.212s-1.772 3.179-1.778 4.946v0c0.007 1.952 0.763 3.846 2.149 5.383s3.322 2.628 5.501 3.101c1.946-2.060 3.085-4.605 3.252-7.266s-0.647-5.299-2.323-7.53v0z"></path>
<path d="M30.089 17.133c-0.008-2.316-1.070-4.535-2.955-6.173s-4.439-2.561-7.105-2.567v0c-1.232-0.001-2.453 0.196-3.602 0.582l12.99 11.286c0.445-0.998 0.673-2.058 0.672-3.128v0z"></path>
</symbol>
<symbol id="icon-company-4" viewBox="0 0 38 37">
<title>company-4</title>
<path d="M9.005 14.866h-0.001c-1.102 0-1.995 0.794-1.995 1.773v0.001c0 0.979 0.893 1.773 1.995 1.773h0.001c1.102 0 1.995-0.794 1.995-1.773v-0.001c0-0.979-0.893-1.773-1.995-1.773z"></path>
<path d="M23.731 14.299c-0.003-1.36-0.612-2.664-1.694-3.625s-2.549-1.504-4.079-1.507v0c-1.531 0.003-2.998 0.544-4.081 1.506s-1.692 2.266-1.695 3.626v0 7.5c0 0 11.548-1.143 11.55-7.499v-0.001z"></path>
<path d="M2.964 24.261c0.003 0.946 0.427 1.853 1.18 2.523s1.773 1.047 2.838 1.049v0c1.065-0.003 2.085-0.38 2.837-1.049s1.177-1.576 1.18-2.522v0-5.219c0 0-8.036 0.796-8.036 5.218zM6.982 25.196c-0.208 0-0.412-0.055-0.585-0.158s-0.308-0.249-0.388-0.42c-0.080-0.171-0.1-0.359-0.060-0.54s0.141-0.348 0.288-0.479 0.335-0.22 0.539-0.256c0.204-0.036 0.416-0.018 0.608 0.053s0.357 0.191 0.472 0.344 0.177 0.334 0.177 0.519c0 0.123-0.026 0.245-0.079 0.359s-0.13 0.217-0.228 0.305c-0.098 0.087-0.214 0.156-0.342 0.204s-0.265 0.072-0.404 0.072v-0.004z"></path>
<path d="M15.103 24.681h-0.775v0.801h-0.404v-1.96h1.276v0.327h-0.872v0.506h0.775v0.326zM17.044 24.546c0 0.193-0.034 0.362-0.102 0.508s-0.166 0.258-0.293 0.337c-0.126 0.079-0.272 0.118-0.436 0.118-0.162 0-0.307-0.039-0.435-0.117s-0.226-0.189-0.296-0.334c-0.070-0.145-0.105-0.312-0.106-0.501v-0.097c0-0.193 0.035-0.363 0.104-0.509s0.168-0.26 0.295-0.338c0.127-0.079 0.273-0.118 0.436-0.118s0.308 0.039 0.435 0.118c0.127 0.078 0.226 0.191 0.295 0.338 0.070 0.146 0.105 0.315 0.105 0.507v0.088zM16.635 24.458c0-0.206-0.037-0.362-0.11-0.468s-0.179-0.16-0.315-0.16c-0.136 0-0.24 0.053-0.314 0.159s-0.111 0.259-0.112 0.463v0.096c0 0.2 0.037 0.355 0.11 0.466s0.179 0.166 0.318 0.166c0.136 0 0.24-0.053 0.312-0.159s0.109-0.262 0.11-0.466v-0.096zM18.354 24.968c0-0.076-0.027-0.135-0.081-0.175s-0.151-0.084-0.291-0.129c-0.14-0.046-0.251-0.091-0.333-0.135-0.223-0.12-0.334-0.282-0.334-0.486 0-0.106 0.030-0.2 0.089-0.283s0.146-0.148 0.257-0.195c0.112-0.047 0.238-0.070 0.377-0.070s0.265 0.026 0.374 0.077c0.109 0.050 0.194 0.122 0.254 0.214s0.092 0.197 0.092 0.315h-0.404c0-0.090-0.028-0.159-0.085-0.209s-0.136-0.075-0.238-0.075c-0.099 0-0.175 0.021-0.23 0.063s-0.082 0.096-0.082 0.164c0 0.064 0.032 0.117 0.096 0.16s0.159 0.084 0.284 0.121c0.23 0.069 0.397 0.155 0.502 0.257s0.157 0.23 0.157 0.382c0 0.17-0.064 0.303-0.193 0.4s-0.301 0.144-0.518 0.144c-0.151 0-0.288-0.027-0.412-0.082s-0.219-0.131-0.284-0.227c-0.065-0.096-0.097-0.207-0.097-0.334h0.405c0 0.216 0.129 0.324 0.388 0.324 0.096 0 0.171-0.019 0.225-0.058s0.081-0.094 0.081-0.164zM20.509 23.849h-0.6v1.633h-0.404v-1.633h-0.592v-0.327h1.597v0.327zM21.92 24.633h-0.775v0.525h0.91v0.324h-1.314v-1.96h1.311v0.327h-0.907v0.467h0.775v0.316zM23.017 24.765h-0.322v0.718h-0.404v-1.96h0.728c0.232 0 0.41 0.052 0.536 0.155s0.188 0.249 0.188 0.437c0 0.134-0.029 0.245-0.087 0.335s-0.145 0.16-0.262 0.213l0.424 0.801v0.019h-0.433l-0.367-0.718zM22.695 24.437h0.326c0.101 0 0.18-0.026 0.236-0.077 0.056-0.052 0.083-0.123 0.083-0.214s-0.026-0.165-0.079-0.218-0.132-0.079-0.241-0.079h-0.324v0.588zM25.142 24.791v0.691h-0.404v-1.96h0.765c0.147 0 0.276 0.027 0.388 0.081s0.198 0.131 0.258 0.23c0.060 0.099 0.090 0.211 0.090 0.338 0 0.192-0.066 0.344-0.198 0.455s-0.313 0.166-0.545 0.166h-0.354zM25.142 24.464h0.361c0.107 0 0.188-0.025 0.244-0.075s0.085-0.122 0.085-0.215c0-0.096-0.028-0.174-0.085-0.233s-0.135-0.090-0.234-0.092h-0.37v0.615zM27.697 24.633h-0.775v0.525h0.91v0.324h-1.314v-1.96h1.311v0.327h-0.907v0.467h0.775v0.316zM29.571 23.849h-0.6v1.633h-0.404v-1.633h-0.592v-0.327h1.597v0.327zM30.982 24.633h-0.775v0.525h0.91v0.324h-1.314v-1.96h1.311v0.327h-0.907v0.467h0.775v0.316zM32.079 24.765h-0.322v0.718h-0.404v-1.96h0.728c0.232 0 0.41 0.052 0.536 0.155s0.189 0.249 0.189 0.437c0 0.134-0.029 0.245-0.087 0.335s-0.145 0.16-0.262 0.213l0.424 0.801v0.019h-0.433l-0.367-0.718zM31.757 24.437h0.326c0.101 0 0.18-0.026 0.236-0.077 0.056-0.052 0.084-0.123 0.084-0.214s-0.026-0.165-0.079-0.218-0.132-0.079-0.241-0.079h-0.324v0.588zM34.131 24.968c0-0.076-0.027-0.135-0.081-0.175s-0.151-0.084-0.291-0.129c-0.14-0.046-0.251-0.091-0.332-0.135-0.223-0.12-0.334-0.282-0.334-0.486 0-0.106 0.030-0.2 0.089-0.283s0.146-0.148 0.257-0.195c0.112-0.047 0.238-0.070 0.377-0.070s0.265 0.026 0.374 0.077c0.109 0.050 0.194 0.122 0.254 0.214s0.092 0.197 0.092 0.315h-0.404c0-0.090-0.028-0.159-0.085-0.209s-0.136-0.075-0.238-0.075c-0.099 0-0.175 0.021-0.23 0.063s-0.082 0.096-0.082 0.164c0 0.064 0.032 0.117 0.096 0.16s0.159 0.084 0.284 0.121c0.23 0.069 0.397 0.155 0.502 0.257s0.157 0.23 0.157 0.382c0 0.17-0.064 0.303-0.192 0.4s-0.301 0.144-0.518 0.144c-0.151 0-0.288-0.027-0.412-0.082s-0.218-0.131-0.284-0.227c-0.065-0.096-0.097-0.207-0.097-0.334h0.405c0 0.216 0.129 0.324 0.388 0.324 0.096 0 0.171-0.019 0.225-0.058s0.081-0.094 0.081-0.164z"></path>
</symbol>
<symbol id="icon-company-5" viewBox="0 0 40 37">
<title>company-5</title>
<path d="M5.61 26.634c0.13 0.147 0.199 0.332 0.196 0.521 0.007 0.123-0.017 0.247-0.070 0.361s-0.132 0.216-0.233 0.297c-0.252 0.175-0.565 0.26-0.881 0.24h-1.549v-3.302h1.517c0.299-0.018 0.596 0.059 0.84 0.219 0.098 0.075 0.176 0.17 0.227 0.277s0.074 0.224 0.068 0.341c0.009 0.182-0.054 0.361-0.176 0.505-0.118 0.131-0.28 0.222-0.462 0.258 0.205 0.034 0.391 0.134 0.523 0.282v0zM3.793 26.136h0.648c0.147 0.010 0.294-0.029 0.412-0.11 0.049-0.040 0.087-0.090 0.111-0.146s0.034-0.116 0.028-0.176c0.005-0.060-0.005-0.12-0.029-0.175s-0.061-0.106-0.108-0.147c-0.122-0.083-0.273-0.123-0.425-0.111h-0.638v0.866zM4.917 27.402c0.052-0.041 0.093-0.093 0.12-0.151s0.038-0.121 0.034-0.184c0.004-0.064-0.008-0.127-0.035-0.186s-0.069-0.111-0.122-0.153c-0.127-0.086-0.283-0.128-0.44-0.119h-0.68v0.908h0.689c0.155 0.008 0.309-0.032 0.435-0.114v0z"></path>
<path d="M8.71 28.054l-0.844-1.291h-0.317v1.291h-0.726v-3.302h1.374c0.346-0.022 0.689 0.078 0.957 0.281 0.192 0.179 0.308 0.415 0.327 0.666s-0.061 0.499-0.224 0.7c-0.17 0.178-0.401 0.296-0.655 0.336l0.899 1.32h-0.789zM7.549 26.313h0.594c0.412 0 0.618-0.167 0.618-0.5 0.004-0.068-0.007-0.136-0.033-0.2s-0.066-0.122-0.118-0.171c-0.13-0.099-0.298-0.147-0.467-0.134h-0.601l0.007 1.005z"></path>
<path d="M12.678 27.389h-1.446l-0.255 0.665h-0.761l1.328-3.265h0.823l1.323 3.265h-0.761l-0.25-0.665zM12.484 26.889l-0.529-1.394-0.529 1.394h1.057z"></path>
<path d="M17.645 28.054h-0.721l-1.616-2.245v2.245h-0.719v-3.302h0.719l1.616 2.258v-2.258h0.721v3.302z"></path>
<path d="M21.757 27.263c-0.149 0.249-0.376 0.452-0.652 0.582-0.314 0.145-0.662 0.217-1.013 0.208h-1.283v-3.302h1.283c0.351-0.008 0.698 0.061 1.013 0.203 0.276 0.127 0.503 0.328 0.652 0.576 0.148 0.269 0.226 0.565 0.226 0.866s-0.077 0.598-0.226 0.866v0zM20.932 27.184c0.206-0.219 0.319-0.499 0.319-0.788s-0.113-0.569-0.319-0.788c-0.249-0.199-0.573-0.3-0.902-0.281h-0.5v2.137h0.5c0.329 0.019 0.654-0.082 0.902-0.281z"></path>
<path d="M13.129 6.384c0 0 9.301 3.215 9.103 7.867v7.869c0 0-9.294-3.217-9.1-7.869l-0.004-7.867z"></path>
<path d="M30.518 20.279c1.757-1.107 3.788-1.792 5.909-1.994v-2.463c-2.444 0.862-4.517 2.426-5.909 4.457v0z"></path>
<path d="M29.463 21.021c1.438-2.651 3.93-4.696 6.964-5.715v-7.098c0 0-13.245 4.58-12.965 11.205v11.203c0 0 0.59-0.205 1.519-0.589 0-0.358 0-0.719 0.042-1.082 0.274-3.076 1.871-5.926 4.44-7.924v0z"></path>
<path d="M28.203 25.183c0.070-0.777 0.225-1.546 0.463-2.294-1.599 1.725-2.568 3.866-2.77 6.122-0.019 0.213-0.030 0.426-0.035 0.645 0.752-0.331 1.628-0.744 2.548-1.229-0.235-1.067-0.304-2.159-0.206-3.244v0z"></path>
<path d="M28.73 25.223c-0.088 0.982-0.033 1.969 0.164 2.938 3.619-1.983 7.685-5.046 7.528-8.748v-0.323c-2.585 0.265-5.004 1.3-6.885 2.946-0.44 1.020-0.712 2.094-0.807 3.188v0z"></path>
</symbol>
<symbol id="icon-company-6" viewBox="0 0 37 37">
<title>company-6</title>
<path d="M18.68 18.049c-0.151-0.201-0.224-0.439-0.206-0.678v-0.984c0-0.302 0.068-0.531 0.205-0.687s0.372-0.235 0.705-0.234c0.313 0 0.535 0.067 0.666 0.2 0.143 0.17 0.213 0.378 0.197 0.588v0.231h-0.56v-0.234c0.002-0.077-0.003-0.153-0.016-0.229-0.008-0.052-0.036-0.1-0.080-0.136-0.057-0.039-0.13-0.058-0.203-0.053-0.077-0.005-0.153 0.015-0.213 0.056-0.049 0.040-0.081 0.093-0.093 0.15-0.016 0.080-0.023 0.162-0.022 0.243v1.194c-0.009 0.115 0.016 0.23 0.072 0.335 0.028 0.035 0.066 0.063 0.112 0.081s0.095 0.024 0.145 0.019c0.072 0.005 0.143-0.014 0.198-0.054 0.046-0.039 0.075-0.090 0.084-0.145 0.013-0.079 0.019-0.159 0.017-0.239v-0.242h0.56v0.221c0.016 0.219-0.052 0.436-0.194 0.618-0.129 0.146-0.348 0.219-0.67 0.219s-0.566-0.078-0.704-0.24z"></path>
<path d="M21.011 18.059c-0.141-0.153-0.212-0.376-0.212-0.671v-1.035c0-0.292 0.071-0.513 0.212-0.663s0.378-0.225 0.709-0.224c0.329 0 0.565 0.075 0.706 0.224s0.213 0.371 0.213 0.663v1.035c0 0.292-0.072 0.516-0.216 0.67s-0.378 0.231-0.704 0.231-0.567-0.078-0.709-0.23zM21.981 17.811c0.051-0.096 0.074-0.201 0.067-0.306v-1.267c0.006-0.103-0.016-0.206-0.066-0.3-0.028-0.036-0.068-0.065-0.114-0.083s-0.098-0.024-0.148-0.018c-0.050-0.006-0.101 0-0.148 0.018s-0.086 0.046-0.115 0.082c-0.051 0.094-0.074 0.197-0.067 0.3v1.273c-0.007 0.105 0.016 0.211 0.067 0.306 0.033 0.032 0.073 0.058 0.118 0.076s0.094 0.027 0.144 0.027c0.050 0 0.099-0.009 0.144-0.027s0.085-0.044 0.118-0.076v-0.006z"></path>
<path d="M23.313 15.496h0.603l0.453 1.909 0.464-1.909h0.587l0.059 2.756h-0.433l-0.046-1.915-0.448 1.915h-0.348l-0.464-1.922-0.043 1.922h-0.438l0.055-2.756z"></path>
<path d="M26.154 15.496h0.939c0.541 0 0.811 0.261 0.811 0.782 0 0.5-0.285 0.749-0.854 0.748h-0.32v1.225h-0.579l0.003-2.756zM26.956 16.673c0.057 0.006 0.115 0.002 0.17-0.013s0.106-0.040 0.148-0.074c0.066-0.093 0.096-0.202 0.084-0.311 0.003-0.084-0.006-0.168-0.028-0.25-0.008-0.027-0.023-0.053-0.043-0.076s-0.045-0.041-0.073-0.056c-0.080-0.033-0.169-0.048-0.258-0.044h-0.225v0.824h0.225z"></path>
<path d="M28.74 15.496h0.622l0.639 2.756h-0.54l-0.126-0.635h-0.555l-0.13 0.635h-0.548l0.639-2.756zM29.272 17.297l-0.217-1.157-0.217 1.157h0.433z"></path>
<path d="M30.517 15.496h0.406l0.777 1.572v-1.572h0.481v2.756h-0.386l-0.781-1.641v1.641h-0.497l0.001-2.756z"></path>
<path d="M33.306 17.201l-0.646-1.701h0.543l0.394 1.093 0.37-1.093h0.532l-0.638 1.701v1.051h-0.556v-1.051z"></path>
<path d="M19.575 19.456v0.144h-0.473v1.12h-0.198v-1.12h-0.475v-0.144h1.146z"></path>
<path d="M21.057 20.72h-0.153c-0.016 0.001-0.031-0.003-0.043-0.012-0.011-0.007-0.020-0.017-0.025-0.029l-0.137-0.3h-0.656l-0.137 0.3c-0.004 0.012-0.011 0.024-0.021 0.034-0.012 0.008-0.027 0.013-0.043 0.012h-0.153l0.579-1.264h0.202l0.587 1.259zM20.098 20.251h0.547l-0.232-0.514c-0.017-0.039-0.031-0.079-0.043-0.119-0.008 0.024-0.015 0.047-0.022 0.067l-0.021 0.053-0.23 0.513z"></path>
<path d="M22.057 20.596c0.036 0.002 0.073 0.002 0.109 0 0.031-0.003 0.062-0.008 0.093-0.015 0.028-0.006 0.056-0.014 0.084-0.023 0.025-0.009 0.051-0.020 0.078-0.031v-0.284h-0.232c-0.006 0-0.011 0-0.017-0.002s-0.010-0.004-0.014-0.008c-0.004-0.003-0.007-0.006-0.009-0.010s-0.003-0.008-0.003-0.013v-0.097h0.45v0.485c-0.037 0.023-0.076 0.043-0.116 0.060s-0.084 0.032-0.129 0.043c-0.047 0.012-0.096 0.021-0.145 0.026-0.056 0.005-0.113 0.008-0.169 0.008-0.1 0.001-0.199-0.015-0.292-0.047-0.087-0.030-0.166-0.075-0.232-0.132-0.064-0.058-0.115-0.126-0.15-0.2-0.037-0.084-0.055-0.173-0.053-0.262-0.001-0.090 0.017-0.18 0.052-0.264 0.033-0.075 0.084-0.143 0.15-0.2s0.145-0.101 0.232-0.131c0.099-0.032 0.204-0.048 0.311-0.047 0.054 0 0.108 0.004 0.161 0.011 0.047 0.007 0.093 0.017 0.138 0.032 0.041 0.013 0.079 0.030 0.116 0.050 0.035 0.020 0.069 0.042 0.101 0.066l-0.056 0.078c-0.004 0.007-0.011 0.013-0.019 0.017s-0.017 0.007-0.026 0.007c-0.013 0-0.025-0.004-0.036-0.010-0.017-0.008-0.036-0.018-0.057-0.030-0.025-0.013-0.051-0.025-0.078-0.034-0.034-0.012-0.070-0.021-0.107-0.028-0.048-0.008-0.098-0.011-0.147-0.011-0.077-0.001-0.152 0.011-0.224 0.035-0.064 0.022-0.123 0.056-0.17 0.1s-0.085 0.099-0.108 0.157c-0.052 0.137-0.052 0.284 0 0.421 0.025 0.059 0.065 0.114 0.116 0.159 0.047 0.043 0.105 0.078 0.169 0.1 0.074 0.022 0.152 0.030 0.229 0.025z"></path>
<path d="M23.904 20.576h0.633v0.144h-0.826v-1.264h0.198l-0.005 1.12z"></path>
<path d="M25.195 20.72h-0.198v-1.264h0.198v1.264z"></path>
<path d="M25.933 19.462c0.012 0.006 0.022 0.014 0.030 0.023l0.847 0.953c-0.001-0.015-0.001-0.030 0-0.045 0-0.014 0-0.028 0-0.041v-0.901h0.173v1.269h-0.1c-0.015 0.001-0.030-0.001-0.043-0.007-0.012-0.006-0.023-0.014-0.031-0.024l-0.846-0.952c0 0.015 0 0.029 0 0.043s0 0.027 0 0.039v0.901h-0.166v-1.264h0.103c0.011 0 0.022 0.002 0.033 0.006z"></path>
<path d="M28.442 19.456v0.139h-0.702v0.417h0.569v0.134h-0.569v0.431h0.702v0.139h-0.906v-1.261h0.906z"></path>
<path d="M7.673 11.651l8.801 2.157v7.56l-8.801-2.156v-7.561zM7.109 11.007v8.572l9.928 2.435v-8.572l-9.928-2.435z"></path>
<path d="M12.43 25.993l-9.93-2.436v-8.572l9.93 2.435v8.572z"></path>
<path d="M7.273 11.554l8.686 2.13-3.694 3.19-8.687-2.131 3.695-3.189zM7.109 11.007l-4.608 3.978 9.93 2.435 4.607-3.978-9.928-2.435z"></path>
<path d="M12.988 25.511l4.048-3.496-4.048-0.994v4.49z"></path>
</symbol>
<symbol id="icon-instagram" viewBox="0 0 37 37">
<title>instagram</title>
<path d="M34.469 11.908c-0.075-1.7-0.35-2.869-0.744-3.882-0.406-1.075-1.032-2.038-1.851-2.838-0.8-0.813-1.769-1.444-2.832-1.844-1.019-0.394-2.182-0.669-3.882-0.744-1.713-0.081-2.257-0.1-6.601-0.1s-4.888 0.019-6.595 0.094c-1.7 0.075-2.869 0.35-3.882 0.744-1.075 0.406-2.038 1.031-2.838 1.85-0.813 0.8-1.444 1.769-1.844 2.832-0.394 1.019-0.669 2.182-0.744 3.882-0.081 1.713-0.1 2.257-0.1 6.601s0.019 4.888 0.094 6.595c0.075 1.7 0.35 2.869 0.744 3.882 0.406 1.075 1.038 2.038 1.85 2.838 0.8 0.813 1.769 1.444 2.832 1.844 1.019 0.394 2.182 0.669 3.882 0.744 1.706 0.075 2.25 0.094 6.595 0.094s4.888-0.019 6.595-0.094c1.7-0.075 2.869-0.35 3.882-0.744 2.151-0.832 3.851-2.532 4.682-4.682 0.394-1.019 0.669-2.182 0.744-3.882 0.075-1.707 0.094-2.251 0.094-6.595s-0.006-4.888-0.081-6.595zM31.587 24.973c-0.069 1.563-0.331 2.407-0.55 2.969-0.538 1.394-1.644 2.5-3.038 3.038-0.563 0.219-1.413 0.481-2.969 0.55-1.688 0.075-2.194 0.094-6.464 0.094s-4.782-0.019-6.464-0.094c-1.563-0.069-2.407-0.331-2.969-0.55-0.694-0.256-1.325-0.663-1.838-1.194-0.531-0.519-0.938-1.144-1.194-1.838-0.219-0.563-0.481-1.413-0.55-2.969-0.075-1.688-0.094-2.194-0.094-6.464s0.019-4.782 0.094-6.464c0.069-1.563 0.331-2.407 0.55-2.969 0.256-0.694 0.663-1.325 1.2-1.838 0.519-0.531 1.144-0.938 1.838-1.194 0.563-0.219 1.413-0.481 2.969-0.55 1.688-0.075 2.194-0.094 6.464-0.094 4.276 0 4.782 0.019 6.464 0.094 1.563 0.069 2.407 0.331 2.969 0.55 0.694 0.256 1.325 0.662 1.838 1.194 0.531 0.519 0.938 1.144 1.194 1.838 0.219 0.563 0.481 1.413 0.55 2.969 0.075 1.688 0.094 2.194 0.094 6.464s-0.019 4.77-0.094 6.458z"></path>
<path d="M18.559 10.283c-4.538 0-8.22 3.682-8.22 8.22s3.682 8.22 8.22 8.22c4.539 0 8.22-3.682 8.22-8.22s-3.682-8.22-8.22-8.22zM18.559 23.835c-2.944 0-5.332-2.388-5.332-5.332s2.388-5.332 5.332-5.332c2.944 0 5.332 2.388 5.332 5.332s-2.388 5.332-5.332 5.332z"></path>
<path d="M29.024 9.958c0 1.060-0.859 1.919-1.919 1.919s-1.919-0.859-1.919-1.919c0-1.060 0.859-1.919 1.919-1.919s1.919 0.859 1.919 1.919z"></path>
</symbol>
<symbol id="icon-twitter" viewBox="0 0 37 37">
<title>twitter</title>
<path d="M34.5 8.578c-1.19 0.522-2.458 0.868-3.78 1.036 1.36-0.812 2.398-2.088 2.886-3.626-1.268 0.756-2.668 1.29-4.16 1.588-1.204-1.282-2.92-2.076-4.792-2.076-3.632 0-6.556 2.948-6.556 6.562 0 0.52 0.044 1.020 0.152 1.496-5.454-0.266-10.28-2.88-13.522-6.862-0.566 0.982-0.898 2.106-0.898 3.316 0 2.272 1.17 4.286 2.914 5.452-1.054-0.020-2.088-0.326-2.964-0.808 0 0.020 0 0.046 0 0.072 0 3.188 2.274 5.836 5.256 6.446-0.534 0.146-1.116 0.216-1.72 0.216-0.42 0-0.844-0.024-1.242-0.112 0.85 2.598 3.262 4.508 6.13 4.57-2.232 1.746-5.066 2.798-8.134 2.798-0.538 0-1.054-0.024-1.57-0.090 2.906 1.874 6.35 2.944 10.064 2.944 12.072 0 18.672-10 18.672-18.668 0-0.29-0.010-0.57-0.024-0.848 1.302-0.924 2.396-2.078 3.288-3.406z"></path>
</symbol>
<symbol id="icon-facebook" viewBox="0 0 37 37">
<title>facebook</title>
<path d="M23.829 7.813h2.921v-5.088c-0.504-0.069-2.237-0.225-4.256-0.225-4.212 0-7.097 2.649-7.097 7.519v4.481h-4.648v5.688h4.648v14.312h5.699v-14.311h4.46l0.708-5.688h-5.169v-3.919c0.001-1.644 0.444-2.769 2.735-2.769z"></path>
</symbol>
<symbol id="icon-linkedin" viewBox="0 0 37 37">
<title>linkedin</title>
<path d="M34.492 34.5v-0.001h0.008v-11.736c0-5.741-1.236-10.164-7.948-10.164-3.227 0-5.392 1.771-6.276 3.449h-0.093v-2.913h-6.364v21.364h6.627v-10.579c0-2.785 0.528-5.479 3.977-5.479 3.399 0 3.449 3.179 3.449 5.657v10.401h6.62z"></path>
<path d="M3.028 13.136h6.635v21.364h-6.635v-21.364z"></path>
<path d="M6.343 2.5c-2.121 0-3.843 1.721-3.843 3.843s1.721 3.879 3.843 3.879c2.121 0 3.843-1.757 3.843-3.879-0.001-2.121-1.723-3.843-3.843-3.843v0z"></path>
</symbol>
<symbol id="icon-smartphone" viewBox="0 0 23 37">
<title>smartphone</title>
<path d="M19.5 2.5h-14c-1.654 0-3 1.346-3 3v26c0 1.654 1.346 3 3 3h14c1.654 0 3-1.346 3-3v-26c0-1.654-1.346-3-3-3zM5.5 4.5h14c0.552 0 1 0.448 1 1v21h-16v-21c0-0.552 0.448-1 1-1zM19.5 32.5h-14c-0.552 0-1-0.448-1-1v-3h16v3c0 0.552-0.448 1-1 1z"></path>
<path d="M7.207 29.978c0.391 0.365 0.391 0.956 0 1.321s-1.024 0.365-1.414 0c-0.391-0.365-0.391-0.956 0-1.321s1.024-0.365 1.414 0z"></path>
</symbol>
<symbol id="icon-envelope" viewBox="0 0 50 37">
<title>envelope</title>
<path d="M41.167 2.5h-34.667c-2.206 0-4 1.794-4 4v24c0 2.206 1.794 4 4 4h34.667c2.206 0 4-1.794 4-4v-24c0-2.206-1.794-4-4-4v0zM41.167 5.167c0.181 0 0.353 0.038 0.511 0.103l-17.844 15.466-17.844-15.466c0.158-0.066 0.33-0.103 0.511-0.103h34.667zM41.167 31.833h-34.667c-0.736 0-1.333-0.598-1.333-1.333v-22.413l17.793 15.421c0.251 0.217 0.563 0.326 0.874 0.326s0.622-0.108 0.874-0.326l17.793-15.421v22.413c0 0.736-0.598 1.333-1.333 1.333v0z"></path>
</symbol>
</defs>
</svg>
